<?xml version="1.0" encoding="UTF-8" standalone="no"?><!DOCTYPE svg PUBLIC "-//W3C//DTD SVG 1.1//EN" "http://www.w3.org/Graphics/SVG/1.1/DTD/svg11.dtd"><svg width="100%" height="100%" viewBox="0 0 710 333" version="1.1" xmlns="http://www.w3.org/2000/svg" xmlns:xlink="http://www.w3.org/1999/xlink" xml:space="preserve" xmlns:serif="http://www.serif.com/" style="fill-rule:evenodd;clip-rule:evenodd;stroke-linejoin:round;stroke-miterlimit:2;"><path d="M138.319,231.906c-18.813,6.25 -34.948,15.818 -48.422,28.688l-31.271,-32.339l29.245,8.24l5.49,-38.896l24.38,29.135l22.411,-39.911l-1.833,45.083Z" style="fill:#2eff9a;"/><path d="M82.72,238.573l1.688,-42.276l28.739,28.109l21.297,-48.823l3.464,58.401l-1.75,0.766c-17.11,7.646 -32.152,18.38 -44.344,32.661l-1.776,2.073l-44.162,-37.395l36.844,6.484Zm52.339,-6.323c-18.105,8.083 -33.219,19.229 -45.318,33.38l-34.328,-29.083l29.922,5.276l1.578,-39.245l27.166,26.563l18.308,-41.938l2.672,45.047Z" style="fill:#fff;"/><rect x="0" y="0" width="581.251" height="13.875" style="fill:#2eff9a;"/><rect x="-0" y="13.875" width="14.25" height="152.547" style="fill:#2eff9a;"/><path d="M146.797,163.927l-0,-104.755l-104.755,-0l-0,24.031l5.182,0l0,80.724l21.047,0l-0,-80.724l13.036,0l0,80.724l26.23,0l-0,-80.724l13.031,0l-0,80.724l26.229,0Z" style="fill:#fff;fill-rule:nonzero;"/><path d="M233.647,163.927l0,-104.755l-78.682,-0l-0,104.755l26.229,0l-0,-29.213l26.229,-0l0,29.213l26.224,0Zm-26.224,-53.083l-26.229,-0l-0,-27.641l26.229,0l0,27.641Z" style="fill:#fff;fill-rule:nonzero;"/><path d="M320.498,163.927l-0,-64.234l-52.454,-0l0,-16.49l52.454,0l-0,-24.031l-78.683,-0l0,63.609l52.459,0l-0,17.276l-52.459,0l0,23.87l78.683,0Z" style="fill:#fff;fill-rule:nonzero;"/><path d="M405.467,83.203l0,-24.031l-78.687,-0l-0,24.031l26.385,0l0,80.724l26.229,0l0,-80.724l26.073,0Z" style="fill:#fff;fill-rule:nonzero;"/><path d="M490.274,163.927l-0,-23.87l-52.141,0l0,-17.276l52.141,0l-0,-23.088l-52.141,-0l0,-16.49l52.141,0l-0,-24.031l-78.37,-0l0,104.755l78.37,0Z" style="fill:#fff;fill-rule:nonzero;"/><path d="M577.123,163.927l-15.391,-29.213l15.391,-0l-0,-75.542l-78.682,-0l-0,104.755l26.229,0l-0,-29.213l11.307,-0l14.922,29.213l26.224,0Zm-26.224,-53.083l-26.229,-0l-0,-27.641l26.229,0l-0,27.641Z" style="fill:#fff;fill-rule:nonzero;"/><path d="M595.371,132.969c0.167,0.338 0.25,0.489 0.25,0.489c0.531,1.776 1.422,1.714 2.646,-0.192c1.76,-2.875 3.812,-5.48 6.141,-7.828c0.947,-0.381 1.328,-1.167 1.182,-2.329c1.312,-0.994 3.364,-1.588 6.094,-1.796c2.5,-0.698 4.145,-0.36 4.974,1.036c8.947,-0.255 13.437,-0.38 13.437,-0.38c0.443,-1.016 1.161,-1.568 2.115,-1.672c2.156,0.229 3.828,-0 5.057,-0.745c3.703,-1.542 5.417,-3.656 5.141,-6.323c-1.735,-7.515 -2.813,-12.443 -3.256,-14.812c1.058,0.062 1.308,-0.828 0.802,-2.667c-0.317,-2.286 -0.994,-4.125 -2.073,-5.521c-1.713,-1.333 -2.583,-2.943 -2.604,-4.828c1.714,0.38 2.964,0.151 3.766,-0.698c0.172,-2.943 0.172,-4.338 -0.021,-4.167c6.604,-3.343 11.724,-5.651 15.386,-6.963c0.781,-0.208 1.713,-0.021 2.812,0.594c4.422,1.989 8.188,2.687 11.302,2.156c1.458,-0.505 2.708,-0.76 3.745,-0.76c4.656,-0.021 7.594,0.338 8.802,1.036c0.74,0.359 0.995,0.87 0.781,1.547c-0.104,1.333 0.531,2.219 1.865,2.667c0.547,0.484 1.036,0.677 1.5,0.588c0.359,-0.125 0.739,-0.021 1.146,0.359c0.505,0.276 0.718,0.193 0.63,-0.317c-0.146,-0.401 0.088,-0.677 0.656,-0.865c0.359,0 0.615,0.125 0.807,0.443c0.485,0.109 0.698,-0.063 0.636,-0.547c-0.13,-0.193 -0.089,-0.427 0.104,-0.656c1.161,-0.933 2.536,-1.693 4.104,-2.287c2.307,-0.422 4.38,-0.51 6.198,-0.234c-0.187,-0.615 -0.062,-1.016 0.365,-1.203c0.484,-0.172 0.864,-0.11 1.119,0.146c0.235,-0.485 0.678,-0.891 1.313,-1.209c0.823,-0.104 1.224,-0.166 1.224,-0.166c0.068,-0.594 0.109,-0.891 0.109,-0.891c1.542,-1.375 1.797,-2.24 0.74,-2.62c-4.104,-0.364 -8.146,-0.552 -12.167,-0.573c-0.656,-1.146 -1.651,-1.484 -3.005,-0.995c-0.87,-0.614 -1.672,-0.552 -2.391,0.235c-4.145,-0.427 -7.765,-1.037 -10.833,-1.844c-0.677,-0.443 -1.292,-0.932 -1.823,-1.437c-8.146,-1.292 -12.781,-2.011 -13.859,-2.162c-0.464,0.427 -0.698,0.615 -0.698,0.615c-3.828,-1.224 -6.729,-1.292 -8.719,-0.188c-3.661,-0.062 -6.958,-0.234 -9.88,-0.489c1.885,-3.089 2.646,-4.547 2.286,-4.36c1.375,-1.203 2.198,-2.177 2.433,-2.896c0.802,-1.609 1.692,-2.203 2.729,-1.755c2.646,1.224 4.484,2.219 5.547,2.959c0.567,0.807 1.416,0.849 2.557,0.13c0.51,-0.573 1.927,-0.49 4.213,0.25c2.136,1.25 4.021,1.166 5.667,-0.229c0.87,-1.865 0.297,-3.62 -1.734,-5.271c-0.74,-0.698 -2.031,-1.037 -3.891,-0.995c-1.713,-0.74 -2.838,-1.438 -3.364,-2.115c-0.808,-1.078 -1.693,-1.27 -2.667,-0.614c-1.25,-1.63 -2.37,-2.245 -3.365,-1.839c-0.677,-0.51 -1.208,-1.229 -1.609,-2.12c-1.162,-0.463 -1.521,-1.119 -1.099,-2.01c1.479,-1.562 1.901,-3.406 1.271,-5.5c-0.255,-1.734 -0.276,-2.984 -0.047,-3.766c0.786,-2.645 -0.146,-4.697 -2.792,-6.093c-3.192,-1.016 -5.12,-1.037 -5.817,-0.084c-0.761,0.719 -1.631,1.016 -2.584,0.844c0.339,0.255 0.828,0.401 1.417,0.422c-1.307,0.49 -2.156,0.932 -2.516,1.375c-0.338,0.745 -0.442,1.422 -0.317,1.99c-0.912,0.994 -1.016,1.739 -0.318,2.203c0.573,0.698 0.739,1.416 0.552,2.177c-0.807,0.276 -1.078,1.062 -0.807,2.37c-0.907,0.192 -1.651,0.255 -2.198,0.192c-0.084,0.74 -0.104,1.141 -0.104,1.229c-1.188,-0.911 -2.079,-1.291 -2.667,-1.166c-0.636,0.041 -1.229,-0.063 -1.734,-0.339c-3.24,-0.234 -6.391,0.235 -9.464,1.417c-2.474,1.333 -4.526,2.031 -6.177,2.073c-1.651,0.068 -2.813,0.364 -3.448,0.89c-1.755,0.469 -3.089,0.532 -4,0.235c-0.021,1.588 -0.021,2.411 -0.021,2.474c-3.427,0.297 -6.792,1.437 -10.073,3.469c-2.875,2.078 -5.838,3.854 -8.885,5.333c-0.38,0.338 -0.698,0.359 -0.995,0.109c-1.63,0.443 -2.964,1.162 -3.979,2.136c-1.292,0.505 -1.714,0.953 -1.313,1.354c0.381,0.166 0.87,0.234 1.526,0.166c0,-0.187 0,0 -0.067,0.553c-0.782,0.802 -1.078,1.416 -0.886,1.864c0.526,-0.068 1.016,-0.448 1.479,-1.187c-0.718,1.291 -1.015,2.135 -0.864,2.541c0.229,0.36 0.568,0.339 0.995,-0.067c0.338,-0.188 0.442,-0.084 0.338,0.296c-0.932,0.657 -1.25,1.271 -0.932,1.844c0.318,0.38 0.698,0.276 1.161,-0.297c0.552,-1.119 1.464,-1.755 2.709,-1.885c1.843,0.109 2.797,-0.677 2.859,-2.391c0.422,-1.541 1.333,-2.515 2.708,-2.942c2.495,-1.584 7.933,-3.704 16.334,-6.344c0.677,0.823 1.208,1.265 1.547,1.333c0.76,-0.807 1.901,-1.208 3.406,-1.208c2.963,-0.339 5.182,-0.235 6.646,0.359c-0.552,1.693 -0.766,3.24 -0.657,4.615c-0.635,0.995 -0.765,1.901 -0.38,2.729c-0.531,1.078 -0.786,1.969 -0.765,2.729c-2.094,0.339 -2.959,1.417 -2.62,3.24c-1.761,1.12 -1.802,2.896 -0.089,5.307c0.469,1.292 0.089,3.156 -1.161,5.589c-0.807,4.125 -0.276,7.724 1.562,10.812c-1.099,3.891 0.469,6.75 4.698,8.589c1.672,1.484 3.792,5.27 6.349,11.323c2.521,3.13 3.724,4.739 3.578,4.843c-5.057,-1.099 -9.797,-0.635 -14.177,1.375c-3.557,1.25 -7.219,1.714 -11.026,1.375c-2.495,-1.541 -4.719,-1.859 -6.666,-0.906c-0.527,0.484 -0.74,0.885 -0.657,1.245c-1.036,0.448 -1.203,0.724 -0.484,0.849c0.193,0.484 0.193,0.995 0.042,1.567c-0.719,0.146 -0.761,0.464 -0.125,0.886c-0.381,2.37 -0.891,4.401 -1.485,6.073c-0.359,0.765 -0.614,1.443 -0.739,2.01c-0.552,0.235 -0.594,0.552 -0.125,0.912c0.083,1.755 0.125,2.625 0.125,2.625c-0.615,0.547 -0.657,0.906 -0.125,1.099c0.062,0.552 0.083,1.14 0.062,1.776c-0.594,0.041 -0.739,0.276 -0.401,0.677Zm104.74,-83.537c4.849,0 8.781,3.933 8.781,8.782c-0,4.843 -3.932,8.781 -8.781,8.781c-4.865,-0 -8.782,-3.938 -8.782,-8.781c0,-4.849 3.917,-8.782 8.782,-8.782Z" style="fill:#fff;"/><path d="M233.947,278.485l-0,-23.87l-52.141,0l0,-80.885l-26.229,-0l0,104.755l78.37,-0Z" style="fill:#2eff9a;fill-rule:nonzero;"/><path d="M319.541,278.485l0,-23.87l-52.141,0l0,-17.276l52.141,0l0,-23.088l-52.141,-0l0,-16.49l52.141,-0l0,-24.031l-78.37,-0l0,104.755l78.37,-0Z" style="fill:#2eff9a;fill-rule:nonzero;"/><path d="M406.39,278.485l0,-104.755l-78.682,-0l-0,104.755l26.229,-0l-0,-29.214l26.229,0l0,29.214l26.224,-0Zm-26.224,-53.083l-26.229,-0l-0,-27.641l26.229,-0l0,27.641Z" style="fill:#2eff9a;fill-rule:nonzero;"/><path d="M493.241,278.485l-0,-41.146l-26.224,0l-0,17.276l-26.23,0l0,-56.854l52.454,-0l-0,-24.031l-78.683,-0l0,104.755l78.683,-0Z" style="fill:#2eff9a;fill-rule:nonzero;"/><path d="M580.091,278.485l0,-104.755l-26.224,-0l0,80.885l-26.229,0l0,-80.885l-26.229,-0l-0,104.755l78.682,-0Z" style="fill:#2eff9a;fill-rule:nonzero;"/><path d="M666.629,278.485l0,-23.87l-52.14,0l-0,-17.276l52.14,0l0,-23.088l-52.14,-0l-0,-16.49l52.14,-0l0,-24.031l-78.37,-0l0,104.755l78.37,-0Z" style="fill:#2eff9a;fill-rule:nonzero;"/><path d="M509.497,47.057l-0,-3.407l-7.443,0l0,-2.463l7.443,-0l-0,-3.297l-7.443,0l0,-2.349l7.443,0l-0,-3.427l-11.182,-0l-0,14.943l11.182,-0Z" style="fill:#fff;fill-rule:nonzero;"/><path d="M521.88,47.057l0,-9.167l-7.484,0l-0,-2.349l7.484,0l0,-3.427l-11.224,-0l0,9.073l7.485,-0l-0,2.463l-7.485,0l0,3.407l11.224,-0Z" style="fill:#fff;fill-rule:nonzero;"/><path d="M533.999,35.541l0,-3.427l-11.224,-0l0,3.427l3.761,0l-0,11.516l3.745,-0l-0,-11.516l3.718,0Z" style="fill:#fff;fill-rule:nonzero;"/><rect x="534.914" y="43.65" width="3.74" height="3.406" style="fill:#fff;fill-rule:nonzero;"/><path d="M558.883,47.057l-0,-14.943l-11.224,-0l-0,14.943l11.224,-0Zm-3.74,-3.407l-3.745,0l0,-8.109l3.745,0l-0,8.109Z" style="fill:#fff;fill-rule:nonzero;"/><path d="M571.247,47.057l-0,-9.167l-0.74,0l-0,-5.776l-10.484,-0l-0,3.427l7.484,0l-0,2.349l-7.484,0l-0,3.297l7.484,-0l-0,2.463l-7.484,0l-0,3.407l11.224,-0Z" style="fill:#fff;fill-rule:nonzero;"/><rect x="572.387" y="26.395" width="3.74" height="5.245" style="fill:#fff;fill-rule:nonzero;"/><rect x="155.637" y="318.375" width="553.875" height="13.875" style="fill:#2eff9a;"/><rect x="695.637" y="175.875" width="13.875" height="142.5" style="fill:#2eff9a;"/></svg>